<svg width="34" height="34" viewBox="0 0 34 34" fill="none" xmlns="http://www.w3.org/2000/svg">
<path d="M6.39626 28.5514L15.2674 19.6803C15.9758 20.2838 16.7903 20.7508 17.7112 21.0814C18.632 21.4119 19.5576 21.5772 20.4878 21.5772C22.7564 21.5772 24.6765 20.7919 26.248 19.2213C27.8196 17.6507 28.6053 15.7311 28.6053 13.4625C28.6053 11.194 27.8205 9.27344 26.2508 7.70094C24.6812 6.12844 22.7621 5.34125 20.4935 5.33936C18.225 5.33747 16.304 6.12325 14.7305 7.69669C13.1571 9.27014 12.3703 11.1907 12.3703 13.4583C12.3703 14.4424 12.5446 15.3949 12.8931 16.3157C13.2416 17.2365 13.6997 18.0242 14.2673 18.6787L5.3961 27.5484L6.39626 28.5514ZM20.4864 20.1591C18.607 20.1591 17.0203 19.5122 15.7264 18.2183C14.4325 16.9244 13.7856 15.3372 13.7856 13.4569C13.7856 11.5765 14.4325 9.9898 15.7264 8.69686C17.0203 7.40391 18.607 6.75697 20.4864 6.75603C22.3659 6.75508 23.953 7.40203 25.2478 8.69686C26.5427 9.99169 27.1896 11.5784 27.1887 13.4569C27.1877 15.3354 26.5408 16.922 25.2478 18.2169C23.9549 19.5117 22.3682 20.1586 20.4878 20.1577" fill="#7D7878"/>
</svg>
